# xmcd
#
# Track frame offsets:
#	150
#	14947
#	26107
#	40515
#	55372
#	68420
#	85010
#	99650
#	113700
#	130650
#	145977
#	161100
#	177262
#	192262
#	209862
#	222882
#	236362
#	250875
#	261472
#	277985
#
# Disc length: 3887 seconds
#
# Revision: 4
# Processed by: cddbd v1.5.2PL0 Copyright (c) Steve Scherf et al.
# Submitted via: audiograbber 1.83.01
#
DISCID=290f2d14
DTITLE=Various Artist - Only Country 1985-1989
DYEAR=1995
DGENRE=Country
TTITLE0=Steve Wariner - Life's Highway
TTITLE1=Patty Loveless - A Little Bit In Love
TTITLE2=Skip Ewing - Burnin' A Hole In My Heart
TTITLE3=Highway 101 - Somewhere Tonight
TTITLE4=Lee Greenwood - Touch And Go Crazy
TTITLE5=Tanya Tucker With Paul Davis and Paul Overstreet - I Won't Take Less Than
TTITLE5=Your Love
TTITLE6=Forester Sisters - I Fell In Love Again Last Night
TTITLE7=Don Williams - Walkin' A Broken Heart
TTITLE8=Conway Twitty - Julia
TTITLE9=John Schneider - What's A Memory LIke You (Doing In A Love Like This)
TTITLE10=Ricky Van Shelton - Living Proof
TTITLE11=Bellamy Brothers - Crazy From The Heart
TTITLE12=Willie Nelson - Nothing I Can Do About It Now
TTITLE13=John Conlee - Working Man
TTITLE14=Oak Ridge Boys - No Matter How High
TTITLE15=Mel McDaniel - Baby's Go Her Blue Jeans On
TTITLE16=Holly Dunn - Love Someone Like Me
TTITLE17=Marty Stuart - Cry Cry Cry
TTITLE18=Dan Seals - Bop
TTITLE19=Randy Travis - Diggin' Up Bones
EXTD=
EXTT0=
EXTT1=
EXTT2=
EXTT3=
EXTT4=
EXTT5=
EXTT6=
EXTT7=
EXTT8=
EXTT9=
EXTT10=
EXTT11=
EXTT12=
EXTT13=
EXTT14=
EXTT15=
EXTT16=
EXTT17=
EXTT18=
EXTT19=
PLAYORDER=
